<svg width="83" height="83" viewBox="0 0 83 83" fill="none" xmlns="http://www.w3.org/2000/svg">
<path d="M68.5821 61.8058C68.5821 63.5308 67.1821 64.9308 65.4571 64.9308C63.732 64.9308 62.332 63.5308 62.332 61.8058V11.8054C62.332 10.0783 63.732 8.68042 65.4571 8.68042C67.1821 8.68042 68.5821 10.0783 68.5821 11.8054V61.8058Z" fill="#CCD6DD"/>
<path d="M76.6705 67.0142C76.7476 66.6725 76.7996 66.3267 76.7996 65.9725C76.7996 61.9454 71.6684 58.6808 65.3412 58.6808C59.0141 58.6808 53.8828 61.9454 53.8828 65.9725C53.8828 66.3267 53.9349 66.6725 54.012 67.0142H76.6705Z" fill="#CCD6DD"/>
<path d="M78.8834 19.0972C79.5793 21.4409 77.0168 23.2639 74.7167 23.2639H55.9666C53.6666 23.2639 51.1937 21.1805 51.7999 19.0972L55.9666 4.51374C56.4875 2.25539 57.8333 0.347046 60.1333 0.347046H70.5501C72.8522 0.347046 74.1959 2.69081 74.7167 4.51374L78.8834 19.0972Z" fill="#FCAB40"/>
<path d="M64.4289 60.9746C64.4289 63.5059 62.3101 65.5559 59.6976 65.5559H17.116C14.5035 65.5559 12.3848 63.5059 12.3848 60.9746V40.3495C12.3848 37.8182 14.5035 35.7661 17.116 35.7661H59.6976C62.3101 35.7661 64.4289 37.8182 64.4289 40.3495V60.9746Z" fill="#5D9040"/>
<path d="M61.2923 65.5558C61.2923 68.0871 59.2402 70.1392 56.709 70.1392H17.7504C15.2191 70.1392 13.167 68.0871 13.167 65.5558V63.2642C13.167 60.7329 15.2191 58.6808 17.7504 58.6808H56.709C59.2402 58.6808 61.2923 60.7329 61.2923 63.2642V65.5558Z" fill="#3F7123"/>
<path d="M38.4089 52.9515C52.773 52.9515 64.4174 47.2385 64.4174 40.191C64.4174 33.1436 52.773 27.4305 38.4089 27.4305C24.0448 27.4305 12.4004 33.1436 12.4004 40.191C12.4004 47.2385 24.0448 52.9515 38.4089 52.9515Z" fill="#5D9040"/>
<path d="M17.7491 49.5162C17.7491 53.312 14.6699 56.3912 10.8741 56.3912C7.07821 56.3912 3.99902 53.312 3.99902 49.5162C3.99902 45.7161 7.07821 42.639 10.8741 42.639C14.672 42.639 17.7491 45.7161 17.7491 49.5162Z" fill="#78B159"/>
<path d="M17.7497 70.1392C17.7497 72.6705 15.6976 74.7226 13.1664 74.7226C10.6351 74.7226 8.58301 72.6705 8.58301 70.1392V49.5162C8.58301 46.9849 10.6351 44.9328 13.1664 44.9328C15.6976 44.9328 17.7497 46.9849 17.7497 49.5162V70.1392ZM59 49.5162C59 53.312 62.0771 56.3912 65.8751 56.3912C69.6688 56.3912 72.7501 53.312 72.7501 49.5162C72.7501 45.7182 69.6688 42.639 65.8751 42.639C62.0792 42.639 59 45.7161 59 49.5162Z" fill="#78B159"/>
<path d="M58.9993 70.1392C58.9993 72.6704 61.0493 74.7225 63.5806 74.7225C66.1119 74.7225 68.1639 72.6704 68.1639 70.1392V49.5161C68.1639 46.9848 66.1119 44.9327 63.5806 44.9327C61.0493 44.9327 58.9993 46.9848 58.9993 49.5161V70.1392ZM38.3742 58.6808C38.3742 61.212 36.3221 63.2641 33.7908 63.2641H22.3324C19.8011 63.2641 17.749 61.212 17.749 58.6808C17.749 56.1495 19.8011 54.0974 22.3324 54.0974H33.7908C36.3221 54.0974 38.3742 56.1495 38.3742 58.6808ZM58.9993 58.6808C58.9993 61.212 56.9472 63.2641 54.4159 63.2641H42.9575C40.4263 63.2641 38.3742 61.212 38.3742 58.6808C38.3742 56.1495 40.4263 54.0974 42.9575 54.0974H54.4159C56.9472 54.0974 58.9993 56.1495 58.9993 58.6808Z" fill="#78B159"/>
<path d="M16.499 58.6808H60.2493V64.9308H16.499V58.6808Z" fill="#78B159"/>
</svg>
