<svg width="49" height="57" viewBox="0 0 49 57" fill="none" xmlns="http://www.w3.org/2000/svg">
<path d="M21.6748 6.35882H27.3224V10.5945H21.6748V6.35882Z" fill="#292F33"/>
<path d="M30.1463 0.71122H18.8511C17.2981 0.71122 16.0273 1.98193 16.0273 3.53502C16.0273 5.08811 17.2981 6.35882 18.8511 6.35882H30.1463C31.6994 6.35882 32.9701 5.08811 32.9701 3.53502C32.9701 1.98193 31.6994 0.71122 30.1463 0.71122ZM38.8775 15.546L36.754 13.6852C35.5864 12.6615 35.4678 10.8684 36.4914 9.70078C37.515 8.53314 39.3082 8.41454 40.4758 9.43817L42.5993 11.2991C43.7669 12.3227 43.8855 14.1158 42.8619 15.2834C41.8383 16.4511 40.0452 16.5697 38.8775 15.546Z" fill="#8899A6"/>
<path d="M24.4987 44.4801C33.0761 44.4801 40.0296 37.5267 40.0296 28.9492C40.0296 20.3717 33.0761 13.4183 24.4987 13.4183C15.9212 13.4183 8.96777 20.3717 8.96777 28.9492C8.96777 37.5267 15.9212 44.4801 24.4987 44.4801Z" fill="#F5F8FA"/>
<path d="M24.499 9.18262C13.5822 9.18262 4.73242 18.0324 4.73242 28.9492C4.73242 39.866 13.5822 48.7158 24.499 48.7158C35.4158 48.7158 44.2656 39.866 44.2656 28.9492C44.2656 18.0324 35.4158 9.18262 24.499 9.18262ZM24.499 44.4801C15.9358 44.4801 8.96812 37.5124 8.96812 28.9492C8.96812 20.386 15.9358 13.4183 24.499 13.4183C33.0622 13.4183 40.0299 20.386 40.0299 28.9492C40.0299 37.5124 33.0622 44.4801 24.499 44.4801Z" fill="#66757F"/>
<path d="M37.2057 30.3611H23.0867C22.3073 30.3611 21.6748 29.73 21.6748 28.9492C21.6748 28.1684 22.3073 27.5373 23.0867 27.5373H37.2057C37.9865 27.5373 38.6176 28.1684 38.6176 28.9492C38.6176 29.73 37.9865 30.3611 37.2057 30.3611Z" fill="#292F33"/>
<path d="M24.4988 17.654C25.2786 17.654 25.9107 17.0219 25.9107 16.2421C25.9107 15.4623 25.2786 14.8302 24.4988 14.8302C23.719 14.8302 23.0869 15.4623 23.0869 16.2421C23.0869 17.0219 23.719 17.654 24.4988 17.654Z" fill="#292F33"/>
<path d="M24.4988 43.0682C25.2786 43.0682 25.9107 42.4361 25.9107 41.6563C25.9107 40.8765 25.2786 40.2444 24.4988 40.2444C23.719 40.2444 23.0869 40.8765 23.0869 41.6563C23.0869 42.4361 23.719 43.0682 24.4988 43.0682Z" fill="#292F33"/>
<path d="M16.0281 21.8897C16.8079 21.8897 17.44 21.2576 17.44 20.4778C17.44 19.698 16.8079 19.0659 16.0281 19.0659C15.2483 19.0659 14.6162 19.698 14.6162 20.4778C14.6162 21.2576 15.2483 21.8897 16.0281 21.8897Z" fill="#292F33"/>
<path d="M32.9705 38.8325C33.7503 38.8325 34.3824 38.2004 34.3824 37.4206C34.3824 36.6408 33.7503 36.0087 32.9705 36.0087C32.1907 36.0087 31.5586 36.6408 31.5586 37.4206C31.5586 38.2004 32.1907 38.8325 32.9705 38.8325Z" fill="#292F33"/>
<path d="M11.7918 30.3611C12.5716 30.3611 13.2037 29.729 13.2037 28.9492C13.2037 28.1695 12.5716 27.5373 11.7918 27.5373C11.012 27.5373 10.3799 28.1695 10.3799 28.9492C10.3799 29.729 11.012 30.3611 11.7918 30.3611Z" fill="#292F33"/>
<path d="M32.9705 21.8897C33.7503 21.8897 34.3824 21.2576 34.3824 20.4778C34.3824 19.698 33.7503 19.0659 32.9705 19.0659C32.1907 19.0659 31.5586 19.698 31.5586 20.4778C31.5586 21.2576 32.1907 21.8897 32.9705 21.8897Z" fill="#292F33"/>
<path d="M16.0275 38.8325C15.666 38.8325 15.3046 38.6941 15.0293 38.4188C14.4772 37.8668 14.4772 36.9744 15.0293 36.4224L24.9126 26.5391C25.4646 25.987 26.3569 25.987 26.909 26.5391C27.461 27.0911 27.461 27.9835 26.909 28.5355L17.0257 38.4188C16.7504 38.6941 16.3889 38.8325 16.0275 38.8325Z" fill="#DD2E44"/>
</svg>
