<svg width="21" height="25" viewBox="0 0 21 25" fill="none" xmlns="http://www.w3.org/2000/svg">
<path d="M19.4655 24.2452C20.2145 24.2452 20.8223 23.6374 20.8223 22.8885V1.85936C20.8223 1.11045 20.2145 0.50264 19.4655 0.50264C18.7166 0.50264 18.1088 1.11045 18.1088 1.85936V22.8885C18.1088 23.6374 18.7166 24.2452 19.4655 24.2452Z" fill="#8899A6"/>
<path d="M19.4655 0.50264C20.2151 0.50264 20.8223 1.10977 20.8223 1.85936V22.8885C20.8223 23.0757 20.6703 23.2276 20.4831 23.2276C20.2959 23.2276 20.1439 23.0757 20.1439 22.8885V2.81855C20.1439 2.28876 19.7145 1.85936 19.1847 1.85936H18.1088C18.1088 1.10977 18.716 0.50264 19.4655 0.50264Z" fill="#AAB8C2"/>
<path d="M19.4655 24.2452C20.2145 24.2452 20.8223 23.6374 20.8223 22.8885V1.85936C20.8223 1.11045 20.2145 0.50264 19.4655 0.50264C18.7166 0.50264 18.1088 1.11045 18.1088 1.85936V22.8885C18.1088 23.6374 18.7166 24.2452 19.4655 24.2452Z" fill="#8899A6"/>
<path d="M19.4655 0.50264C20.2151 0.50264 20.8223 1.10977 20.8223 1.85936V22.8885C20.8223 23.0757 20.6703 23.2276 20.4831 23.2276C20.2959 23.2276 20.1439 23.0757 20.1439 22.8885V2.81855C20.1439 2.28876 19.7145 1.85936 19.1847 1.85936H18.1088C18.1088 1.10977 18.716 0.50264 19.4655 0.50264Z" fill="#AAB8C2"/>
<path d="M0.881166 1.915C2.00995 1.42726 3.21268 1.18508 4.54159 1.16338L5.47433 1.42115L8.61174 1.85937L9.29009 1.77254C9.45087 1.80714 9.61299 1.8397 9.77241 1.8743C11.2438 2.19245 12.6419 2.48075 14.0386 2.54044L14.717 3.21609L18.7871 2.53773V15.4265H14.717L14.0386 16.7833H13.9864C12.4641 16.7181 10.9528 16.4061 9.48682 16.09L9.29009 16.0486L8.85188 15.6111L5.16296 15.1308L4.54159 15.4089C3.40195 15.4306 2.37559 15.6361 1.41843 16.0493C1.20881 16.1395 0.967318 16.1191 0.777378 15.9936C0.586081 15.8675 0.471437 15.6551 0.471437 15.4265V2.53773C0.471437 2.26706 0.63221 2.02218 0.881166 1.915Z" fill="#31373D"/>
<path d="M14.0386 2.54044C14.2007 2.54723 14.3629 2.56418 14.525 2.56418C15.744 2.56418 16.8287 2.35186 17.8401 1.915C18.0491 1.82342 18.2912 1.84512 18.4812 1.9713C18.6725 2.09612 18.7871 2.3098 18.7871 2.53773V6.60788C18.7871 6.60788 16.554 7.28624 14.0386 7.28624V2.54044ZM9.29009 6.60788C9.29009 6.60788 11.8339 7.28624 14.0386 7.28624V12.0347C12.0035 12.0347 9.29009 11.3564 9.29009 11.3564V6.60788ZM4.54159 5.92952V1.16337C4.60671 1.16202 4.66776 1.15456 4.73356 1.15456C6.2714 1.15456 7.80042 1.45439 9.29009 1.77254V6.60788C9.29009 6.60788 7.82009 5.92952 4.54159 5.92952ZM18.3774 16.0493C17.3598 16.4888 16.2813 16.7229 15.1077 16.7833H14.0386V12.0347C16.8653 12.0347 18.7871 11.3564 18.7871 11.3564V15.4265C18.7871 15.6972 18.6263 15.9421 18.3774 16.0493ZM9.29009 11.3564V16.0479C7.72105 15.7094 6.23002 15.4001 4.73356 15.4001C4.66776 15.4001 4.60671 15.4075 4.54159 15.4089V10.678C7.5942 10.678 9.29009 11.3564 9.29009 11.3564ZM4.54159 10.678C2.7263 10.678 1.2719 11.0579 0.471437 11.3252V6.54547C1.24952 6.28701 2.66321 5.92952 4.54159 5.92952V10.678Z" fill="#E1E8ED"/>
</svg>
