<svg width="21" height="30" viewBox="0 0 21 30" fill="none" xmlns="http://www.w3.org/2000/svg">
<path d="M13.6714 20.5606L15.0679 17.6568C15.4138 17.8451 16.892 18.6695 17.7753 19.4647C18.2885 19.927 18.219 20.2745 18.0663 21.0358L18.0525 21.1045C17.8998 21.8739 16.2705 27.0455 16.0563 27.7211L14.9693 27.4512C14.9604 27.0907 14.9232 25.2149 15.1115 24.0301C15.1705 23.6559 15.2303 23.2017 15.2845 22.8001C15.3419 22.3612 15.3928 21.9822 15.43 21.7915C15.4817 21.5215 15.4033 21.3631 15.1576 21.2443C14.461 20.9081 13.8758 20.6503 13.6714 20.5606ZM6.62321 22.0291C7.06447 21.9749 7.44674 21.9272 7.6399 21.9151C7.91387 21.8981 8.04722 21.7818 8.10056 21.5143C8.2525 20.7554 8.35352 20.1234 8.38828 19.9035L11.5499 20.5234C11.4545 20.9057 11.0294 22.5439 10.4815 23.5994C10.1639 24.2112 9.80987 24.2314 9.03482 24.2766L8.96451 24.2807C8.17653 24.3267 2.76656 24.0511 2.05859 24.0148L2.04647 22.8954C2.39399 22.7952 4.19866 22.2877 5.39396 22.1713C5.76976 22.1349 6.22316 22.0784 6.62321 22.0291Z" fill="#FFDC5D"/>
<path d="M3.39377 24.4609L3.53762 24.1958C3.5554 24.153 3.53439 24.1045 3.49075 24.0892C3.35255 24.0415 3.07211 23.9138 2.97432 23.8621C3.05918 24.056 3.15616 24.3664 3.26446 24.4601C3.30648 24.4949 3.37275 24.511 3.39377 24.4609Z" fill="#8899A6"/>
<path d="M1.29767 22.4049C1.41001 22.3152 1.66701 22.2707 1.82865 22.2554C1.94018 22.2448 2.23112 22.236 2.47438 22.2489C2.5843 22.2554 2.70956 22.2683 2.76129 22.2836C2.92131 22.3297 2.99162 22.3976 3.02961 22.4437C3.07567 22.4994 3.07971 22.56 3.06921 22.5899C3.02718 22.7136 2.82352 22.9278 2.73462 23.1314C2.70471 23.1993 2.68774 23.2656 2.69421 23.3278C2.71603 23.5509 3.00051 23.8758 3.21387 24.1166C3.34156 24.2613 3.4442 24.3752 3.44824 24.4197C3.45309 24.4673 3.43935 24.5078 3.41834 24.5474V24.549C3.36015 24.6557 3.23327 24.7664 3.14598 25.0573C3.09022 25.2448 2.82675 26.1007 2.82675 26.1007C2.76371 26.3189 2.67966 26.3722 2.6441 26.4894C2.57056 26.7295 2.44125 27.3736 2.37659 27.5772C2.31194 27.7809 2.15758 27.8682 2.03877 27.8851C1.91997 27.9021 1.85128 27.8738 1.85128 27.8738C1.85128 27.8738 1.57245 27.7486 1.38738 26.7028C1.25403 25.9471 1.37202 25.8308 1.47224 24.6961C1.57245 23.5614 1.29767 22.4049 1.29767 22.4049Z" fill="#1C6399"/>
<path d="M1.53065 24.0924C1.72058 24.0148 2.15376 23.7287 2.2758 23.4208C2.38571 23.1427 2.46087 22.3919 2.47461 22.2497C2.24185 22.2287 1.88383 22.244 1.76907 22.2554C1.61713 22.2699 1.44256 22.282 1.3375 22.3709L1.29709 22.4057C1.29709 22.4049 1.48216 23.5961 1.53065 24.0924Z" fill="#3B94D9"/>
<path d="M3.19684 24.9361C3.25584 24.9361 3.3116 24.903 3.33827 24.8464C3.37545 24.768 3.34231 24.6743 3.26392 24.6379L2.98752 24.507C2.90913 24.4698 2.81619 24.5029 2.7782 24.5813C2.74103 24.6597 2.77416 24.7535 2.85256 24.7898L3.12895 24.9207C3.15158 24.9313 3.17421 24.9361 3.19684 24.9361ZM3.02066 25.4412C3.08693 25.4412 3.14835 25.3984 3.17017 25.3321C3.19603 25.2497 3.15077 25.1616 3.06834 25.1349L2.76123 25.0371C2.68284 25.0105 2.59151 25.0557 2.56484 25.139C2.53898 25.2214 2.58424 25.3095 2.66667 25.3362L2.97378 25.4339C2.98833 25.4396 3.00449 25.4412 3.02066 25.4412ZM2.87195 25.956C2.9455 25.956 3.01015 25.9051 3.02551 25.8308C3.04248 25.7459 2.98833 25.6635 2.90266 25.6457L2.61495 25.5875C2.52524 25.5689 2.44766 25.6255 2.42988 25.7103C2.41291 25.7952 2.46705 25.8776 2.55272 25.8954L2.84043 25.9536L2.87195 25.956ZM0.628439 22.6182C0.633288 22.5956 0.65026 22.5075 0.710065 22.4C0.73027 22.3637 0.776336 22.3523 0.82321 22.3467C0.881399 22.3394 1.30812 22.278 1.3162 22.3645C1.3162 22.3645 1.31863 22.493 1.37843 22.5811C1.43905 22.6692 1.48107 22.8857 1.49643 23.0474C1.51178 23.2082 1.58129 23.816 1.56512 24.2419C1.54896 24.6686 1.41722 25.4396 1.41157 25.6966C1.4051 25.9536 1.41157 26.3545 1.46652 26.6503C1.52148 26.9461 1.57967 27.2095 1.62493 27.372C1.68312 27.5813 1.7607 27.7526 1.85041 27.8722C1.85041 27.8722 1.5134 27.8496 1.25559 27.351C1.05193 26.9574 0.937973 26.5791 0.895139 26.2106C0.891906 26.1823 0.803814 25.1988 0.761788 24.7074C0.731077 24.3477 0.679354 23.7739 0.679354 23.7739C0.613892 23.0943 0.598536 22.7484 0.628439 22.6182Z" fill="#CCD6DD"/>
<path d="M16.8047 26.563L16.5873 26.3537C16.5509 26.3246 16.4984 26.3319 16.4717 26.3707C16.3893 26.4911 16.1905 26.7271 16.1153 26.8079C16.3254 26.778 16.6495 26.7667 16.7691 26.6875C16.8144 26.6568 16.8467 26.597 16.8047 26.563Z" fill="#8899A6"/>
<path d="M14.2643 28.0347C14.2077 27.9029 14.2336 27.6427 14.2619 27.4827C14.2813 27.3728 14.3499 27.0899 14.4283 26.8588C14.4631 26.7545 14.51 26.6373 14.5383 26.5921C14.6255 26.4498 14.7096 26.4005 14.7645 26.3763C14.8308 26.3472 14.8898 26.3585 14.9165 26.3771C15.0248 26.4506 15.1767 26.7044 15.3489 26.8442C15.4062 26.8911 15.4652 26.925 15.5267 26.9355C15.7473 26.9743 16.1368 26.7868 16.4254 26.6454C16.5983 26.5605 16.7365 26.4927 16.7793 26.4999C16.827 26.508 16.8618 26.5315 16.8949 26.563L16.8965 26.5638H16.8957C16.983 26.6478 17.0566 26.8006 17.3127 26.9614C17.4792 27.0649 18.2341 27.5465 18.2341 27.5465C18.428 27.6653 18.4563 27.7607 18.5598 27.8262C18.7715 27.9611 19.3574 28.2577 19.5369 28.3741C19.7163 28.4905 19.7591 28.6626 19.7429 28.7822C19.7268 28.9018 19.6815 28.96 19.6815 28.96C19.6815 28.96 19.4859 29.1952 18.4297 29.0942C17.6659 29.0215 17.5851 28.8768 16.5183 28.4776C15.4515 28.0791 14.2643 28.0347 14.2643 28.0347Z" fill="#1C6399"/>
<path d="M15.9521 28.2594C15.9279 28.0557 15.7679 27.5619 15.5036 27.3623C15.2652 27.1829 14.5613 26.9097 14.4279 26.858C14.3455 27.077 14.2647 27.4261 14.2453 27.5393C14.2186 27.6896 14.1838 27.8609 14.242 27.9862L14.2647 28.0339C14.2639 28.0347 15.4616 28.1737 15.9521 28.2594Z" fill="#3B94D9"/>
<path d="M16.8585 27.2257C16.9021 27.2257 16.9466 27.2071 16.9773 27.1715L17.1769 26.9396C17.2335 26.8741 17.2262 26.7747 17.1608 26.7182C17.0953 26.6616 16.9951 26.6689 16.9393 26.7343L16.7397 26.9663C16.6831 27.0317 16.6904 27.1311 16.7559 27.1877C16.7866 27.2136 16.8229 27.2257 16.8585 27.2257ZM17.3232 27.5692C17.3741 27.5692 17.4242 27.5441 17.4549 27.4981L17.6311 27.2281C17.678 27.1554 17.6578 27.0584 17.585 27.0107C17.5123 26.9638 17.4161 26.9832 17.3676 27.056L17.1915 27.3259C17.1446 27.3986 17.1648 27.4956 17.2375 27.5433C17.2642 27.5611 17.2933 27.5692 17.3232 27.5692ZM17.8218 27.8415C17.8784 27.8415 17.9334 27.81 17.9617 27.7559L18.095 27.494C18.1338 27.4172 18.1031 27.3227 18.0263 27.2831C17.9495 27.2435 17.8558 27.2742 17.8154 27.3518L17.682 27.6136C17.6432 27.6912 17.6739 27.785 17.7507 27.8246C17.7734 27.8367 17.7984 27.8415 17.8218 27.8415ZM14.2909 28.737C14.2699 28.7257 14.1899 28.6869 14.1018 28.5996C14.0727 28.5705 14.0735 28.5228 14.0808 28.476C14.0889 28.4178 14.1438 27.9902 14.2295 28.0056C14.2295 28.0056 14.3539 28.0379 14.455 28.0032C14.556 27.9684 14.7766 27.9862 14.9358 28.0137C15.095 28.042 15.6988 28.1365 16.1053 28.2658C16.5118 28.3951 17.2197 28.7273 17.4662 28.8025C17.7127 28.8768 18.0999 28.9778 18.4005 29.0037C18.7003 29.0296 18.9703 29.0441 19.1384 29.0433C19.3558 29.0433 19.5408 29.0142 19.6807 28.9601C19.6807 28.9601 19.5691 29.2785 19.0196 29.394C18.5856 29.4854 18.1912 29.4943 17.8243 29.4369C17.7968 29.4328 16.8245 29.255 16.3404 29.1645C15.9857 29.0983 15.4191 28.9948 15.4191 28.9948C14.7459 28.8768 14.4089 28.8 14.2909 28.737Z" fill="#CCD6DD"/>
<path d="M15.6387 17.6415C15.0318 17.3198 13.0243 16.3055 11.6407 16.1835C11.5146 16.1722 11.3998 16.2546 11.3562 16.3734L10.2829 19.3112C10.228 19.4615 10.3047 19.6272 10.4575 19.6757C11.0887 19.8777 12.6719 20.4151 13.868 21.0649C13.9949 21.1336 14.1484 21.0981 14.2301 20.9793C14.5986 20.4426 15.5571 18.9774 15.7842 17.9405C15.8101 17.8193 15.7478 17.6997 15.6387 17.6415Z" fill="#1C6399"/>
<path d="M11.7104 21.0714C11.8688 20.403 12.3448 18.2048 12.1153 16.8349C12.0943 16.7096 11.986 16.6199 11.8599 16.6078L8.74601 16.3088C8.58599 16.2934 8.44617 16.4098 8.43728 16.5698C8.40011 17.2309 8.27888 18.899 7.95156 20.2204C7.91681 20.3602 7.99036 20.5 8.12613 20.5493C8.73873 20.7707 10.3979 21.3292 11.4583 21.288C11.5819 21.2823 11.6813 21.1926 11.7104 21.0714Z" fill="#357BAA"/>
<path d="M13.73 9.05369C13.7987 9.54829 13.6896 10.3031 12.5452 10.4979C11.4009 10.6927 10.2726 10.5456 9.78853 10.4106C9.30443 10.2757 9.32868 11.1251 9.18482 11.9235C9.04016 12.7253 8.94156 13.3524 8.98116 13.5181C9.04743 13.7985 9.63498 14.3352 9.39899 14.8209C9.163 15.3066 8.7872 15.7737 8.32249 15.5983C7.85779 15.423 7.4739 15.2145 7.35025 14.9542C7.2266 14.694 7.77454 13.9076 7.79636 13.6821C7.81819 13.4575 7.61291 10.5399 7.63958 10.2086C7.6719 9.80368 7.70262 9.24927 8.36371 9.02055C9.0248 8.79103 11.6724 8.27702 12.3359 8.14852C13.0972 7.99901 13.6387 8.39825 13.73 9.05369Z" fill="#FFDC5D"/>
<path d="M12.7591 5.51629C12.5288 5.19625 12.3567 4.82287 12.2831 4.36544C12.0196 2.7321 13.0105 1.21353 14.4959 0.974308C15.9813 0.735086 17.9606 1.89564 17.8596 3.54756C17.7585 5.18736 16.7637 7.57716 15.4027 7.12215C15.0439 7.00173 14.6842 6.87081 14.344 6.71644C14.1904 6.88535 14.0619 7.54968 14.1031 8.1243C14.209 9.58711 12.1934 9.67035 12.0891 8.20511C12.0051 7.04537 12.751 6.3366 12.7591 5.51629Z" fill="#FFDC5D"/>
<path d="M17.2685 1.4471C15.3046 0.149162 13.9558 0.317264 12.8122 1.18364C11.6767 2.04435 11.5789 3.72779 11.8601 4.80833C12.1414 5.88968 12.455 5.83876 12.455 5.83876C12.455 5.83876 13.9291 6.21457 14.0754 4.84228C14.1214 4.40828 13.6438 4.16098 14.1869 3.53706C14.536 3.1354 15.2844 3.36007 15.2731 3.95247C15.261 4.54406 15.5665 4.44142 15.5665 4.44142L16.4983 2.89779C16.4983 2.89779 17.2669 2.87354 17.675 3.58959C17.9312 4.03813 18.9843 2.58098 17.2685 1.4471Z" fill="#FFAC33"/>
<path d="M10.1381 8.60029C10.7604 7.27164 11.7415 6.59681 12.873 7.01868C16.4136 8.34006 14.7803 11.6092 13.5041 16.9205C13.5041 16.9205 10.9915 17.2834 8.39967 17.2115C8.39967 17.2123 8.64051 11.7983 10.1381 8.60029Z" fill="#4289C1"/>
<path d="M12.1741 8.77085C12.6405 8.49203 13.4438 8.2819 14.1243 9.34628C14.8048 10.4107 15.1353 11.6043 15.2056 12.1474C15.2759 12.6905 16.1165 12.3058 16.9788 12.1111C17.8435 11.9155 18.9419 11.5825 19.0914 11.4726C19.3443 11.2875 19.2522 10.7663 19.8389 10.7962C20.4257 10.8261 20.7142 10.7582 20.736 11.2988C20.757 11.8395 20.7643 12.381 20.5566 12.6154C20.3481 12.8498 19.6458 12.6477 19.3314 12.7584C19.0995 12.8401 16.2579 14.2746 15.9144 14.3885C15.495 14.5275 14.926 14.732 14.416 14.1663C13.9061 13.6006 12.2679 11.1647 11.8565 10.5537C11.3845 9.85301 11.5551 9.141 12.1741 8.77085Z" fill="#FFDC5D"/>
</svg>
